<svg width="30" height="31" viewBox="0 0 30 31" fill="none" xmlns="http://www.w3.org/2000/svg">
<path d="M14.1166 7.43762L15.0004 8.32262L15.8841 7.43887C16.4636 6.85433 17.1528 6.39 17.9121 6.07253C18.6715 5.75506 19.4861 5.59071 20.3092 5.58891C21.1322 5.5871 21.9476 5.74789 22.7083 6.06203C23.4691 6.37617 24.1603 6.83748 24.7423 7.41947C25.3243 8.00147 25.7856 8.69269 26.0997 9.45344C26.4139 10.2142 26.5747 11.0295 26.5729 11.8526C26.571 12.6756 26.4067 13.4902 26.0892 14.2496C25.7718 15.009 25.3074 15.6982 24.7229 16.2776L15.8854 25.1164C15.7693 25.2326 15.6314 25.3248 15.4797 25.3877C15.3279 25.4506 15.1653 25.483 15.001 25.483C14.8367 25.483 14.6741 25.4506 14.5223 25.3877C14.3706 25.3248 14.2327 25.2326 14.1166 25.1164L5.27788 16.2776C4.6854 15.7 4.21349 15.0106 3.88954 14.2492C3.5656 13.4878 3.39605 12.6697 3.39075 11.8423C3.38545 11.0149 3.5445 10.1947 3.85866 9.42919C4.17283 8.66373 4.63586 7.96826 5.2209 7.38314C5.80593 6.79802 6.50133 6.33489 7.26675 6.02062C8.03217 5.70635 8.85237 5.54718 9.67979 5.55237C10.5072 5.55755 11.3253 5.72698 12.0868 6.05082C12.8482 6.37466 13.5377 6.84647 14.1154 7.43887L14.1166 7.43762Z" fill="#446163"/>
</svg>
