<svg width="30" height="26" viewBox="0 0 30 26" fill="none" xmlns="http://www.w3.org/2000/svg">
<path d="M26.0497 3.26258C25.4112 2.62384 24.6532 2.11714 23.8189 1.77144C22.9845 1.42574 22.0903 1.2478 21.1872 1.2478C20.2841 1.2478 19.3898 1.42574 18.5555 1.77144C17.7211 2.11714 16.9631 2.62384 16.3247 3.26258L14.9997 4.58758L13.6747 3.26258C12.385 1.97297 10.636 1.24847 8.81216 1.24847C6.98837 1.24847 5.23928 1.97297 3.94966 3.26258C2.66005 4.5522 1.93555 6.30129 1.93555 8.12508C1.93555 9.94887 2.66005 11.698 3.94966 12.9876L5.27466 14.3126L14.9997 24.0376L24.7247 14.3126L26.0497 12.9876C26.6884 12.3491 27.1951 11.5911 27.5408 10.7568C27.8865 9.92245 28.0644 9.02819 28.0644 8.12508C28.0644 7.22197 27.8865 6.32771 27.5408 5.49339C27.1951 4.65907 26.6884 3.90103 26.0497 3.26258V3.26258Z" stroke="#446163" stroke-width="2" stroke-linecap="round" stroke-linejoin="round"/>
</svg>
